# xmcd CD database file
#
# Track frame offsets:
#	150
#	13613
#	25885
#	38413
#	50619
#	62848
#	75175
#	85049
#	99724
#	111039
#	121133
#	136257
#	147246
#	155862
#	169640
#	178980
#
# Disc length: 2548 seconds
#
# Revision: 0
# Processed by: cddbd v1.4PL0 Copyright (c) Steve Scherf et al.
# Submitted via: Feurio! 1.63 - http://www.feurio.com
#
DISCID=c909f210
DTITLE=Various Artist - Songs Of The West - CD2
DYEAR=1900
DGENRE=country
TTITLE0=Lynn Anderson - Rose Garden
TTITLE1=Billie Joe Spears - Look What They've Done To My Song
TTITLE2=Stonewall Jackson - Me And You And A Dog Named Boo
TTITLE3=Conway Twitty - Linda On My Mind
TTITLE4=Don Williams - On Her Way To Be A Woman
TTITLE5=Bobby Bare - Roses Are Red (My Love)
TTITLE6=Dolly Parton - Release Me
TTITLE7=Bellamy Brothers - Dancing Cowboys
TTITLE8=Waylon Jennings - Sally Was A Good Old Girl
TTITLE9=George Jones - The Race Is On
TTITLE10=Ed Bruce - You're The Best Break (This Old Heart Ever Had)
TTITLE11=Bill Hayes - The Ballad Of Davy Crockett
TTITLE12=Conway Twitty - Blue Is The Way I Feel
TTITLE13=Freddy Fender - Baby I Want To Love You
TTITLE14=Frankie Laine - Rawhide
TTITLE15=Waylon Jennings - Don't Think Twice It's Alright
EXTD=
EXTT0=
EXTT1=
EXTT2=
EXTT3=
EXTT4=
EXTT5=
EXTT6=
EXTT7=
EXTT8=
EXTT9=
EXTT10=
EXTT11=
EXTT12=
EXTT13=
EXTT14=
EXTT15=
PLAYORDER=
